<svg xmlns="http://www.w3.org/2000/svg">
    <symbol id="twitter" viewBox="0 0 22 18">
        <path d="M22 2.38918C21.191 2.73222 20.321 2.96407 19.4081 3.06852C20.3398 2.5346 21.0552 1.68955 21.3922 0.682817C20.5202 1.17718 19.5546 1.53577 18.526 1.72905C17.7032 0.891167 16.5301 0.367432 15.232 0.367432C12.7393 0.367432 10.7189 2.298 10.7189 4.67956C10.7189 5.01766 10.7584 5.34689 10.8357 5.6623C7.0846 5.4827 3.75901 3.76541 1.53295 1.15673C1.14443 1.79333 0.921886 2.53398 0.921886 3.3244C0.921886 4.82069 1.71835 6.14036 2.92973 6.91397C2.18992 6.89187 1.49391 6.6978 0.885376 6.37458C0.88451 6.39275 0.884504 6.41067 0.884504 6.4287C0.884504 8.51842 2.44044 10.2609 4.50492 10.6573C4.12653 10.7559 3.7279 10.808 3.31624 10.808C3.02512 10.808 2.74286 10.7817 2.46681 10.7311C3.04153 12.4443 4.70801 13.6912 6.68333 13.7261C5.13742 14.8829 3.19166 15.5719 1.07697 15.5719C0.712916 15.5719 0.353368 15.5514 0 15.5118C1.99818 16.7353 4.37022 17.449 6.91929 17.449C15.2207 17.449 19.7597 10.8783 19.7597 5.17934C19.7597 4.99246 19.7552 4.80686 19.747 4.62193C20.6285 4.01345 21.3936 3.25416 21.999 2.38921"/>
    </symbol>
    <symbol id="instagram" viewBox="0 0 23 24">
        <path d="M6.6571 0.67334C2.98565 0.67334 0 3.63873 0 7.28325V16.8407C0 20.4852 2.98565 23.449 6.6571 23.449H16.3429C20.0143 23.449 23 20.4852 23 16.8407V7.28325C23 3.63873 20.0143 0.67334 16.3429 0.67334H6.6571ZM6.6571 2.6313H16.3429C18.9559 2.6313 21.0292 4.68941 21.0292 7.28325V16.8407C21.0292 19.4345 18.9559 21.491 16.3429 21.491H6.6571C4.04408 21.491 1.97241 19.4345 1.97241 16.8407V7.28325C1.97241 4.68941 4.04408 2.6313 6.6571 2.6313ZM17.6727 4.58924C16.9107 4.58924 16.2934 5.20201 16.2934 5.95832C16.2934 6.71466 16.9107 7.32741 17.6727 7.32741C18.4346 7.32741 19.0519 6.71466 19.0519 5.95832C19.0519 5.20201 18.4346 4.58924 17.6727 4.58924ZM11.5 6.19713C8.24893 6.19713 5.59264 8.83395 5.59264 12.0612C5.59264 15.2884 8.24893 17.9252 11.5 17.9252C14.7511 17.9252 17.409 15.2884 17.409 12.0612C17.409 8.83395 14.7511 6.19713 11.5 6.19713ZM11.5 8.15509C13.6853 8.15509 15.4366 9.89192 15.4366 12.0612C15.4366 14.2304 13.6853 15.9672 11.5 15.9672C9.31472 15.9672 7.56504 14.2304 7.56504 12.0612C7.56504 9.89192 9.31472 8.15509 11.5 8.15509Z"/>
    </symbol>
    <symbol id="facebook" viewBox="0 0 12 22">
        <path d="M8.83169 0.571289C5.69558 0.571289 3.54784 2.30036 3.54784 5.47684V8.21442H0V11.9271H3.54784V21.449H7.78878V11.9271H11.3267L11.8581 8.21442H7.78878V5.84364C7.78878 4.76904 8.11969 4.0365 9.8251 4.0365H12V0.717411C11.6238 0.672179 10.3339 0.571289 8.83169 0.571289Z"/>
    </symbol>
</svg>