<svg version="1.1" xmlns="http://www.w3.org/2000/svg" xmlns:xlink="http://www.w3.org/1999/xlink">
    <symbol id="like" viewBox="0 0 35 32">
        <path d="M0.118 13.699v16.183c0 1.119 0.904 2.023 2.023 2.023h6.069v-20.228h-6.069c-1.119 0-2.023 0.904-2.023 2.023z"></path>
        <path d="M30.601 11.405h-6.719c-0.59 0-0.882-0.391-0.981-0.562s-0.299-0.619-0.014-1.131l2.368-4.266c0.519-0.931 0.576-2.034 0.149-3.015s-1.266-1.692-2.304-1.948l-1.671-0.42c-0.405-0.1-0.839 0.028-1.123 0.341l-9.072 10.076c-0.939 1.045-1.458 2.396-1.458 3.804v11.91c0 3.136 2.553 5.689 5.688 5.689h11.319c2.553 0 4.814-1.721 5.489-4.181l2.432-11.149c0.071-0.313 0.107-0.626 0.107-0.946-0.007-2.318-1.891-4.202-4.209-4.202z"></path>
    </symbol>
    <symbol id="remove" viewBox="0 0 105.16 122.88">
        <path d="M11.17,37.16H94.65a8.4,8.4,0,0,1,2,.16,5.93,5.93,0,0,1,2.88,1.56,5.43,5.43,0,0,1,1.64,3.34,7.65,7.65,0,0,1-.06,1.44L94,117.31v0l0,.13,0,.28v0a7.06,7.06,0,0,1-.2.9v0l0,.06v0a5.89,5.89,0,0,1-5.47,4.07H17.32a6.17,6.17,0,0,1-1.25-.19,6.17,6.17,0,0,1-1.16-.48h0a6.18,6.18,0,0,1-3.08-4.88l-7-73.49a7.69,7.69,0,0,1-.06-1.66,5.37,5.37,0,0,1,1.63-3.29,6,6,0,0,1,3-1.58,8.94,8.94,0,0,1,1.79-.13ZM5.65,8.8H37.12V6h0a2.44,2.44,0,0,1,0-.27,6,6,0,0,1,1.76-4h0A6,6,0,0,1,43.09,0H62.46l.3,0a6,6,0,0,1,5.7,6V6h0V8.8h32l.39,0a4.7,4.7,0,0,1,4.31,4.43c0,.18,0,.32,0,.5v9.86a2.59,2.59,0,0,1-2.59,2.59H2.59A2.59,2.59,0,0,1,0,23.62V13.53H0a1.56,1.56,0,0,1,0-.31v0A4.72,4.72,0,0,1,3.88,8.88,10.4,10.4,0,0,1,5.65,8.8Zm42.1,52.7a4.77,4.77,0,0,1,9.49,0v37a4.77,4.77,0,0,1-9.49,0v-37Zm23.73-.2a4.58,4.58,0,0,1,5-4.06,4.47,4.47,0,0,1,4.51,4.46l-2,37a4.57,4.57,0,0,1-5,4.06,4.47,4.47,0,0,1-4.51-4.46l2-37ZM25,61.7a4.46,4.46,0,0,1,4.5-4.46,4.58,4.58,0,0,1,5,4.06l2,37a4.47,4.47,0,0,1-4.51,4.46,4.57,4.57,0,0,1-5-4.06l-2-37Z"/>
    </symbol>
</svg>